<?xml version="1.0" encoding="UTF-8"?><svg id="Layer_1" xmlns="http://www.w3.org/2000/svg" xmlns:xlink="http://www.w3.org/1999/xlink" viewBox="0 0 372.04 62.14"><defs><style>.cls-1{fill:#FFFFFF;}.cls-2{fill:#FFFFFF;}</style><linearGradient id="linear-gradient" x1="0" y1="31.07" x2="62.14" y2="31.07" gradientTransform="matrix(1, 0, 0, 1, 0, 0)" gradientUnits="userSpaceOnUse"><stop offset="0" stop-color="#2ba549"/><stop offset="1" stop-color="#c1d835"/></linearGradient></defs><g><path class="cls-2" d="M123.96,33.5c0,10.84-7.67,18.03-18.46,18.03-11.75,0-20.13-8.75-20.13-19.48s8.48-19.59,19.7-19.59c7.14,0,13.2,3.6,16.37,8.75l-6.33,3.65c-1.72-3.01-5.53-5.21-10.09-5.21-7.14,0-12.29,5.26-12.29,12.4s4.99,12.24,12.83,12.24c5.9,0,9.66-2.84,10.95-7.14h-11.38v-6.55h18.84v2.9Z"/><path class="cls-2" d="M142.91,23.41v7.73c-3.6-.43-8.16,1.18-8.16,6.82v12.83h-6.93V23.94h6.93v4.62c1.39-3.65,4.78-5.15,8.16-5.15Z"/><path class="cls-2" d="M158.26,45.25c2.68,0,4.83-1.13,6.01-2.68l5.58,3.22c-2.52,3.65-6.55,5.74-11.7,5.74-9.02,0-14.71-6.17-14.71-14.17s5.74-14.17,14.17-14.17c7.94,0,13.58,6.28,13.58,14.17,0,1.02-.11,1.93-.27,2.84h-20.24c.97,3.54,3.92,5.05,7.57,5.05Zm6.01-10.41c-.86-3.86-3.76-5.42-6.66-5.42-3.7,0-6.23,1.99-7.03,5.42h13.69Z"/><path class="cls-2" d="M188.15,45.25c2.68,0,4.83-1.13,6.01-2.68l5.58,3.22c-2.52,3.65-6.55,5.74-11.7,5.74-9.02,0-14.71-6.17-14.71-14.17s5.74-14.17,14.17-14.17c7.94,0,13.58,6.28,13.58,14.17,0,1.02-.11,1.93-.27,2.84h-20.24c.97,3.54,3.92,5.05,7.57,5.05Zm6.01-10.41c-.86-3.86-3.76-5.42-6.66-5.42-3.7,0-6.23,1.99-7.03,5.42h13.69Z"/><path class="cls-2" d="M229.91,34.3v16.48h-6.93v-15.62c0-3.65-2.2-5.53-5.31-5.53-3.38,0-5.9,1.99-5.9,6.66v14.49h-6.93V23.94h6.93v3.01c1.61-2.42,4.4-3.76,8-3.76,5.69,0,10.14,3.97,10.14,11.11Z"/><path class="cls-2" d="M256.96,44.02h-14.98l-2.25,6.76h-8l13.15-37.57h9.18l13.2,37.57h-8.05l-2.25-6.76Zm-2.31-6.92l-5.15-15.35-5.15,15.35h10.31Z"/><path class="cls-2" d="M298.24,37.36c0,8-5.9,14.17-13.1,14.17-3.92,0-6.76-1.45-8.69-3.92v13.9h-6.93V23.94h6.93v3.17c1.93-2.47,4.78-3.92,8.69-3.92,7.19,0,13.1,6.17,13.1,14.17Zm-6.92,0c0-4.51-3.17-7.57-7.46-7.57s-7.41,3.06-7.41,7.57,3.17,7.57,7.41,7.57,7.46-3.06,7.46-7.57Z"/><path class="cls-2" d="M329.69,37.36c0,8-5.9,14.17-13.1,14.17-3.92,0-6.76-1.45-8.69-3.92v13.9h-6.93V23.94h6.93v3.17c1.93-2.47,4.78-3.92,8.69-3.92,7.19,0,13.1,6.17,13.1,14.17Zm-6.92,0c0-4.51-3.17-7.57-7.46-7.57s-7.41,3.06-7.41,7.57,3.17,7.57,7.41,7.57,7.46-3.06,7.46-7.57Z"/><path class="cls-2" d="M333.5,11.6h6.93V50.78h-6.93V11.6Z"/><path class="cls-2" d="M359.1,45.25c2.68,0,4.83-1.13,6.01-2.68l5.58,3.22c-2.52,3.65-6.55,5.74-11.7,5.74-9.02,0-14.71-6.17-14.71-14.17s5.74-14.17,14.17-14.17c7.94,0,13.58,6.28,13.58,14.17,0,1.02-.11,1.93-.27,2.84h-20.24c.97,3.54,3.92,5.05,7.57,5.05Zm6.01-10.41c-.86-3.86-3.76-5.42-6.66-5.42-3.7,0-6.23,1.99-7.03,5.42h13.69Z"/></g><path class="cls-1" d="M60.33,22.14h-21.11c-.92,0-1.79,.45-2.32,1.21l-7.06,10.17c-.53,.76,.01,1.79,.93,1.79h15.04c-1.05,3.66-3.43,6.77-6.58,8.76-1.23,.78-2.79,.93-4.11,.32-1.18-.54-2.57-.85-4.06-.85s-2.88,.31-4.06,.85c-1.3,.6-2.83,.49-4.04-.27-3.88-2.43-6.62-6.54-7.16-11.26-1.05-9.27,6.2-17.15,15.26-17.15h19.96c1.04,0,2-.58,2.47-1.51L61.99,2.03C62.46,1.1,61.79,0,60.75,0H31.42C14.34,0,.02,13.97,0,31.04c-.02,17.16,13.95,31.12,31.11,31.1,17.07-.02,31.04-14.34,31.04-31.42v-6.78c0-1-.81-1.81-1.81-1.81Z"/></svg>