<svg enable-background="new 0 0 700.401 241.584" height="185.933936" viewBox="0 0 700.401 241.584" width="537.825435" xmlns="http://www.w3.org/2000/svg"><g clip-rule="evenodd" fill-rule="evenodd"><path d="m47.508 113.709h20.324l28.273 36.489h16.097l-28.438-36.598c19.68-1.287 29.609-9.525 29.609-24.728 0-16.183-11.66-24.219-35.078-24.219h-45.734v71.551h14.947zm0-37.901h32.665c12.342 0 18.522 4.344 18.522 13.171 0 9.091-6.181 13.56-18.522 13.56h-32.665z"/><path d="m206.868 64.653v60.397h28.312v11.154h-42.957v-71.551z"/><path d="m327.304 64.653h67.184v11.155h-26.879v60.396h-15.003v-60.396h-25.302z"/><path d="m399.825 64.653h14.822v71.551h-14.822z"/><path d="m508.114 64.653h16.254l-52.125 77.243-52.102-77.243h16.77l35.174 54.626z"/><path d="m529.793 64.653h15.039v71.551h-15.039z"/><path d="m550.829 64.653h66.515v11.155h-26.611v60.396h-14.873v-60.396h-25.031z"/><path d="m700.401 64.653-31.44 36.178v35.373h-15.064v-35.373l-32.639-36.178h19.117l21.042 25.923 21.716-25.923z"/><path d="m185.778 136.329h-65.867v-71.535h65.261v10.657h-53.028v18.367h31.95v10.627h-31.95v21.425h53.634z"/><path d="m291.963 16.344c-20.648-29.927-88.926-17.439-159.531 26.713.133.047 6.881-3.83 10.123-5.74 64.485-37.436 124.819-46.852 143.799-19.346 10.52 15.188 6.484 39.064-8.733 65.857l-15.268 23.055c-17.964 23.828-43.29 48.684-73.821 70.992-76.462 55.881-156.623 74.841-179.041 42.398-10.643-15.405-6.354-39.637 9.277-66.849 5.67-10.302 10.643-18.044 7.596-13.731-25.039 35.389-33.303 66.542-20.194 85.514 23.147 33.542 105.899 13.901 184.818-43.765 19.656-14.351 37.226-29.755 52.158-45.254h17.127l7.1-11.389h54.981l7.911 11.389h17.128l-53.126-76.981c5.499-17.175 5.15-32.114-2.304-42.863m23.231 97.102h-40.437l20.113-32.115z"/></g></svg>