<?xml version="1.0" encoding="UTF-8"?>
<!-- Generator: Adobe Illustrator 27.0.1, SVG Export Plug-In . SVG Version: 6.00 Build 0)  -->
<svg version="1.1" id="Stingray_00000091706278474423910580000001598280633764020639_" xmlns="http://www.w3.org/2000/svg" xmlns:xlink="http://www.w3.org/1999/xlink" x="0px" y="0px" viewBox="0 0 540 181.24" style="enable-background:new 0 0 540 181.24;" xml:space="preserve">
<style type="text/css">
	.st0{fill:#FFFFFF;}
</style>
<g>
	<g id="Stingray">
		<g>
			<polygon points="216.94,77.19 229.26,77.19 229.26,111.81 237.52,111.81 237.52,77.19 249.75,77.19 249.75,69.44 216.94,69.44         "/>
			<rect x="258.32" y="69.44" width="8.42" height="42.37"/>
			<polygon points="307.07,97.11 286.35,69.44 278.32,69.44 278.32,111.81 286.58,111.81 286.58,84.2 307.3,111.81 315.32,111.81      315.32,69.44 307.07,69.44    "/>
			<path d="M349.1,97.52h7.9c-1.37,4.73-5.32,7.43-10.94,7.43c-9.46,0-13.78-7.37-13.78-14.21c0-7.01,4.65-14.45,13.27-14.45     c4.86,0,8.89,2.48,9.78,6.04l0.31,1.2h8.21l-0.27-1.82c-1.16-7.63-8.79-13.17-18.14-13.17c-13.98,0-21.52,11.47-21.52,22.26     c0,10.89,7.54,21.91,21.96,21.91c10.17,0,17.71-5.8,19.79-15.18h4.48v-7.75H349.1V97.52z"/>
			<polygon points="478.99,69.44 470.57,86.12 460.11,69.44 450.45,69.44 466.27,94.74 457.67,111.81 466.82,111.81 488.13,69.44         "/>
			<path d="M400.61,95.73c4.27-2.55,6.9-7.15,6.9-12.15c0-7.74-6.29-14.09-14.02-14.14h-16.36v42.31h8.24V97.74h6.86l6.43,14.07     h9.29L400.61,95.73z M393.49,89.97h-8.12V77.19h8.04c3.49,0,6.35,2.87,6.35,6.39C399.76,87.08,396.94,89.94,393.49,89.97z"/>
			<path d="M436.07,69.79l-0.12-0.36h-7.31l-14.65,42.37h8.98l3.13-9.45h12.39l3.13,9.45h8.97L436.07,69.79z M427.83,95.42     l4.46-13.47l4.46,13.47H427.83z"/>
			<path d="M201.32,87.45l-7.64-1.77c-3.15-0.75-4.71-2.18-4.71-4.58c0-3,2.66-4.91,6.61-4.91c4.36,0,6.75,2.18,7.71,4.98h8.67     c-1.37-7.1-6.89-12.15-16.45-12.15c-8.8,0-15.07,5.33-15.07,12.9c0,6.89,4.64,10.09,10.64,11.46l7.51,1.7     c3.62,0.82,5.11,2.18,5.11,4.71c0,3.35-2.8,5.25-7.02,5.25c-4.1,0-7.17-1.71-8.32-5.39h-9.02c1.43,7.98,8.05,12.62,17.39,12.62     c8.88,0,15.56-4.91,15.56-13.03C212.3,92.91,208.14,89.02,201.32,87.45z"/>
		</g>
	</g>
	<g id="Shape">
		<path class="st0" d="M58.57,112.61c6.38-5.16,11.87-10.69,16.6-16.37c19.53,26.17,26.51,47.15,27.78,56.7L58.57,112.61z"/>
		<path class="st0" d="M105.38,145.38c-2.37-9.07-9.04-27.67-27.24-51.97c-7.57-10.1-16.4-18.5-26.26-26.81l52.06-38.3    c0.62,5.67,5.01,36.83,27.99,66.05C114.54,117.79,107.9,135.59,105.38,145.38z"/>
		<path class="st0" d="M107.79,152.94c1.26-9.55,8.24-30.53,27.78-56.7c4.74,5.67,10.23,11.2,16.6,16.37L107.79,152.94z"/>
		<path class="st0" d="M135.6,92.9c-22.38-28.11-27.01-58.11-27.77-64.61l53.11,38.13C150.75,74.98,142.42,83.98,135.6,92.9z"/>
	</g>
</g>
</svg>