<svg xmlns="http://www.w3.org/2000/svg" viewBox="0 0 180 23"><path fill="#FFFFFF" fill-rule="evenodd" d="M45.627 0c5.165 0 7.28 1.952 7.28 4.007 0 1.594-.836 2.64-2.68 2.64-.993 0-1.94-.443-2.137-.541l-.038-.02s.462-.971.462-2.048c0-1.492-1.315-2.582-2.89-2.582-2.02 0-2.774 1.492-2.774 2.695 0 1.67 1.25 2.489 2.255 3.17 2.179 1.283 3.917 2.343 3.917 2.343 4.59 2.623 4.913 4.8 4.913 6.244 0 3.01-2.434 6.198-8.107 6.198-5.467 0-7.936-2.076-7.936-4.712 0-1.86 1.332-2.986 2.796-2.986 1.28 0 2.276.553 2.276.553s-.513.701-.513 2.294c0 2.114 1.865 3.26 3.415 3.26 2.088 0 3.176-1.471 3.176-2.744 0-1.673-.98-2.588-2.465-3.54 0 0-3.046-1.807-3.917-2.333-1.257-.758-4.398-2.942-4.398-5.937C38.262 3.09 40.6 0 45.627 0Zm103.968.548c8.348 0 11.508 4.734 11.508 10.533 0 6.566-3.932 10.342-11.637 10.459l-.37.002-6.815.016V.605h.038c.432-.006 4.496-.051 6.884-.056h.392Zm29.72.029v1.726h-9.817V10h6.196v1.727h-6.196v8.077H180v1.727h-15.856V.577h15.172Zm-49.733 0 9.995 20.953h-5.884l-2.24-5.225h-7.061l-2.23 5.225h-1.798L129.311.576h.271Zm-28.09 0 5.567 12.824L112.24.576h5.592V21.53h-5.353V4.4l-6.922 17.13h-1.502L97.28 4.632V21.53h-1.636V.576h5.849Zm-81.934 0v1.726h-7.103V21.53H7.102V2.303H0V.577h19.558Zm72.918 0v1.726h-9.818V10h6.197v1.727h-6.197v8.077h9.818v1.727H77.305V.577h15.171Zm-18.04 0v1.726h-7.102V21.53H61.98V2.303H54.88V.577h19.557Zm-47.923 0 9.995 20.953h-5.884l-2.24-5.225h-7.062l-2.229 5.225h-1.798L26.242.576h.27Zm122.306 1.725h-1.184v17.529h1.253c3.864 0 6.783-2.614 6.783-8.881 0-5.757-2.52-8.648-6.852-8.648Zm-20.905 5.746-2.786 6.53h5.603l-2.817-6.53Zm-103.069 0-2.786 6.53h5.603l-2.817-6.53Z"></path></svg>