<?xml version="1.0" encoding="utf-8"?>
<!-- Generator: Adobe Illustrator 26.3.1, SVG Export Plug-In . SVG Version: 6.00 Build 0)  -->
<svg version="1.1" id="Layer_1" xmlns="http://www.w3.org/2000/svg" xmlns:xlink="http://www.w3.org/1999/xlink" x="0px" y="0px"
	 viewBox="0 0 58 47" style="enable-background:new 0 0 58 47;" xml:space="preserve">
<style type="text/css">
	.st0{fill:#FEBD33;}
</style>
<path class="st0" d="M58,10.1c-0.1-4.2-5.2-6.8-8.7-4.5c0.4-0.5-0.7-0.6-0.5-0.9c0.1-0.1-0.4,0.1-0.5,0c-1-0.5-2.8,0.8-4.2,1.6
	c-1.7,0.9-2.3,4-4.7,3.8c-0.1,0-0.3,0-0.3-0.1c-0.1-0.1,0-0.3,0.1-0.3c-0.1-0.2-0.2-0.4-0.1-0.6c0.1,0,0.2,0.1,0.3,0.1
	c-0.2-0.2-0.1-0.6,0-0.8c0.1,0,0.3,0,0.4,0c0.1-0.4,1.3-0.9,1.3-1.1c0,0.3,0.5-0.1,0.5-0.1c0,0-0.1,0.1,0,0.1c0.2,0,0.9-0.7,0.8-0.3
	c0.6-0.1,0.9-1,0.8-1.5c-0.2,0-0.6,0.2-0.7-0.1c-0.5,0.1-1-0.2-1.5-0.3c0-0.4,1.1-0.2,1.3-0.5c0.1,0.3,0.4-0.2,0.5,0
	c0.4-0.3,0.9-0.3,1.3-0.7c0.3-0.4,0.3-0.9,0.5-1.3c0.5-1.5-1.9-0.9-2.8-1.2C40.2,1.8,40,0,38,0c-1.6-0.2-2.4,0.6-3.8,0.8
	C34,1,34,1.1,33.6,1.3c-0.2,0.4-0.6,0.4-0.8,0.4c0,0.3-0.3,0.3,0,0.7c-0.3,0.3-0.2,0.9-0.5,1.1c-0.4,0.3,0,0.2-0.3,0.5
	c-0.6,0.7-1.7,1-2.6,0.8c-0.2,0.1,0.2,0.1,0.3,0.3c-0.8,0.1,0.6,0.7,0.3,0.7c-0.1,0.1-0.4,0-0.5,0c0,0.3,0.6,0.3,0.5,0.4
	c0.2,0.5,1.1,0.4,1.4,0.8c-0.1,0.2-0.7,1.3-0.6,1.2c0,0.1-0.2,0.2-0.3,0.1c0.3,0.8-1.3,1.4-1.5,2.2c-1.1,1.8-0.9,3.5-2.1,5.4
	c-0.8,1-0.8,2.2-1.8,3c-0.3,0.7-1.7,1.6-1.6,2.2c0.6,0.7-0.3,0.7-0.4,0.9c0.6,0,0.2,0.2,0,0.3c0.6,0.1-0.7,0.4-0.6,0.5
	c0.5,0-0.1,0.3-0.1,0.5c-0.2,0.8-1.5,1-2.1,1.2c0.2,0.1,0,0,0.1,0.1c0.1,0,0,0.1-0.3,0.1c-0.4,0.1-0.9,0.1-1.3,0
	c-0.4-0.1-0.8-0.2-1.1-0.3c0.1,0.1,0.2,0.2,0.2,0.3c0,0-0.2,0-0.2,0c0,0,0.1,0.2,0.1,0.2c-0.1,0.1-0.4,0-0.5,0
	c-0.5-0.1-0.9-0.2-1.4-0.3c-2.9-0.4-5.8-1.4-7.9-3.5c0.4,0.7-0.5-0.3-0.6-0.5c-1-1.1-2.8-2.4-2.7-4.2c-0.2,1.2-0.6-0.8-0.3-1.1
	c-0.8-0.1-0.7,1.4-0.5,2c-0.4-0.6-0.3,0-0.3,0.6c0,0-0.1-0.3-0.2-0.4c0,0.2,0,0.3,0.1,0.5c-0.2-0.3-0.1,0.1-0.1,0.3
	c-0.1,0.1-0.3-0.7-0.4-0.3c0.2,2.2,1.5,3.4,2.5,5.1c-0.1,0-0.4-0.1-0.5-0.1c0.4,0.5,1,0.9,1.5,1.4c-0.1,0-0.2-0.1-0.3,0
	c0,0,0.5,0.4,0.6,0.5c0.2,0.2,0.5,0.3,0.7,0.4c-0.2,0-0.5,0-0.7,0c0.2,0.3,0.4,0.6,0.7,0.8c0.1,0.1,0.2,0.1,0.3,0.2
	C8,26.3,8,26.4,8.1,26.4c0.1,0.1,0.2,0.1,0.4,0.1c0.9,0.2,1.8,0.6,2.6,1.1c-0.1,0.1-0.2,0.1-0.2,0.2c0.2,0.1,0.5,0.1,0.7,0.1
	c-0.1,0.1-0.1,0.1-0.2,0.2c0.5,0.1,1,0.1,1.5,0.3c-0.1,0.1-0.2,0.2-0.2,0.3c0,0,0.1,0.1,0.2,0.1c0.8,0.1,1.6-0.1,2.4-0.1
	c0.1,0,0.2,0,0.2,0.1c0,0.1,0,0.1-0.1,0.1c-0.2,0.1-0.4,0.3-0.6,0.4c0.1,0,0.2,0.1,0.3,0.1c-0.3,0.5-0.6,1.1-1,1.5
	c-0.2,0.2-0.4,0.4-0.4,0.6c0.1,0,0.2,0,0.2,0.1c-0.2,0.3-0.5,0.5-0.7,0.8c-0.1,0.1-0.2,0.2-0.4,0.3c-0.1,0-0.3,0-0.4-0.1
	c0,0.2,0,0.4,0.1,0.5c-0.1,0-0.3,0-0.4,0c0.1,0,0.1,0.1,0.1,0.2c0,0.1-0.1,0.2-0.1,0.2c-0.3,0.4-0.8,0.6-1.3,0.6c0,0.1,0,0.2,0,0.2
	c0,0-0.6,0.1-0.7,0.1c0.1,0,0.2,0.2,0.1,0.3c-0.1,0.1-0.2,0.2-0.4,0.2c-0.4,0.1-0.7,0.2-1.1,0.3c-0.4,0.1-0.8,0.1-1.2,0.2
	c-1.2,0.4-2.1,1.4-3.4,1.6C4.3,37,4.4,37,4.5,37c-0.2,0.2-0.6,0.2-0.8,0.4c-0.6,0.4-0.9,0.3-1.5,0.8c-0.4,0.4-0.7,0.6-0.9,0.9
	C1.2,39.4,1,40,0.5,39.8c-0.3,0,0.3,0.2,0.2,0.2c-0.4,0.3-0.1,0.3-0.6,0.8C-0.2,41.4,0.3,42,0,42.5c2,0.4,3.4-2.9,5.3-3.5
	c0.2,0-0.2,0.1,0.2,0.1c0.2,0,0.8-0.4,0.9-0.4c0.9,0,2.1-0.5,3.1-0.3c-0.3,0.6-1,1.1-1.7,1.1c0,0.2,0.8,0.1,0.7,0.2
	c-0.4,0.3-1.3,0.7-1.4,1.1C7,40.9,6.6,41,6.4,40.9c-0.2,0,0,0.1,0,0.1c-0.1,0-0.4,0-0.5-0.2c-0.1,0.1,0.2,0.4,0.4,0.4
	c0.3,0.1-0.3,0.3-0.4,0.3c-0.1,0.1,0.6,0.2,0.2,0.3c-0.2,0.3-1,0-0.8,0.4c0.7,0.3,0.1,0.4-0.2,0.7c-0.1,0.1,0.5,0,0.5,0.1
	c0,0-0.3,0.2-0.1,0.1c-0.1,0.1-0.4,0.5-0.4,0.8c-0.3,0.5-0.5,1-0.2,1.4c-0.8,1.6,0.6,1.7,1.5,0.5c0.9-1.1,1.4-2.8,2.5-3.7
	c2.7-2.6,3.7-1.8,6.9-2.7c0.2,0.1-0.3,0.4-0.4,0.5c0.1,0.2,0.7-0.3,0.8-0.2c0.9,0.2,1.9-0.8,2.6-1.3c0,0.1,0,0.3,0.1,0.4
	c0.3-0.3,0.6-0.6,0.9-0.8c0,0.2,0.1,0.4,0.2,0.6c0.5-1.4,2.1-2.4,3.6-2.3c-0.1-0.1-0.2-0.2-0.2-0.2c0.4-0.1,0.7-0.3,1.1-0.3
	c0-0.1-0.1-0.2-0.2-0.2c0.7-0.7,1.5-1.3,2.1-2.1c0,0.1,0,0.1,0,0.2c0.2-0.4,0.5-0.9,0.9-1.2c0.1-0.1,1.1-0.8,1.1-0.7
	c0,0,0,0.1,0,0.1c0.1-0.3,0.4-0.6,0.6-0.8c0.3-0.2,1.7-2.1,1.9-2c0.7,0.4,1.6,1,2-0.3c1.3-3.8,5.2-6.2,5.9-10.2
	c0.6-0.1,1.2,0.1,1.8,0.2c-0.1-0.1-0.2-0.3-0.3-0.4c0.2,0,0.4,0,0.6,0c0-0.1-0.1-0.2-0.1-0.3c0.1,0,0.2,0,0.3,0
	c0-0.2,0.2-0.3,0.3-0.2c0.2,0,0.3,0.1,0.5,0c-0.1-0.1-0.2-0.1-0.3-0.2c1.2-0.2,2-1.3,2.8-2.2c0.4-0.4,0.7-0.8,1.1-1.2
	c0.2-0.1,0.3-0.3,0.5-0.4c-0.1,0-0.3,0-0.4,0c0.2-0.2,0.4-0.3,0.6-0.5c-0.1,0-0.2,0-0.3,0c0-0.1,0.8-0.9,0.8-0.9
	C48.8,18.4,58.6,16.6,58,10.1z M47.8,7C47.8,7,47.8,7,47.8,7C47.8,7,47.8,7,47.8,7z M46.3,9.5c-0.7,0.8-1.6,1.9-2.7,2.1
	c-0.1-0.4,1.2-0.9,0.8-0.9c-0.6,0.1,0-0.2,0.1-0.4c0.2-0.3,0.2-0.9,0.7-1.1C45.1,9.2,45.9,9,45.4,9c-1.2,0.3,0.7-0.7,0.9-0.9
	c-0.5,0,0-0.1,0.2-0.2c-0.1-0.1-0.5,0-0.1-0.3c0.3-0.3,1.2-0.5,0.3-0.4c0.2-0.3,0.9,0,1.2-0.2C47.1,7.8,47,8.8,46.3,9.5z"/>
</svg>
