<svg width="133" height="30" viewBox="0 0 133 30" fill="none" xmlns="http://www.w3.org/2000/svg">
<path d="M59.8022 14.8079H57.5444C57.48 14.4376 57.3613 14.1096 57.1882 13.8239C57.0152 13.5341 56.7998 13.2886 56.5423 13.0874C56.2847 12.8861 55.9909 12.7352 55.6609 12.6346C55.3349 12.5299 54.9827 12.4776 54.6044 12.4776C53.9323 12.4776 53.3366 12.6467 52.8175 12.9847C52.2983 13.3188 51.8918 13.8098 51.598 14.4577C51.3042 15.1017 51.1573 15.8885 51.1573 16.8182C51.1573 17.764 51.3042 18.5608 51.598 19.2088C51.8958 19.8527 52.3023 20.3397 52.8175 20.6697C53.3366 20.9957 53.9303 21.1587 54.5984 21.1587C54.9686 21.1587 55.3147 21.1104 55.6367 21.0138C55.9627 20.9132 56.2545 20.7663 56.5121 20.5732C56.7737 20.38 56.993 20.1425 57.1701 19.8608C57.3512 19.5791 57.476 19.2571 57.5444 18.8949L59.8022 18.907C59.7177 19.4946 59.5346 20.0459 59.2528 20.5611C58.9751 21.0762 58.6109 21.531 58.1602 21.9254C57.7094 22.3158 57.1822 22.6217 56.5785 22.843C55.9748 23.0604 55.3047 23.169 54.5682 23.169C53.4815 23.169 52.5116 22.9175 51.6584 22.4144C50.8052 21.9113 50.133 21.1849 49.642 20.2351C49.151 19.2853 48.9055 18.1463 48.9055 16.8182C48.9055 15.486 49.1531 14.3471 49.6481 13.4013C50.1431 12.4515 50.8172 11.725 51.6705 11.2219C52.5237 10.7189 53.4896 10.4673 54.5682 10.4673C55.2564 10.4673 55.8963 10.5639 56.4879 10.7571C57.0795 10.9503 57.6068 11.234 58.0696 11.6083C58.5324 11.9786 58.9128 12.4334 59.2106 12.9727C59.5124 13.5079 59.7096 14.1197 59.8022 14.8079ZM65.8014 23.1811C64.8959 23.1811 64.1111 22.9819 63.447 22.5835C62.7829 22.185 62.2678 21.6276 61.9015 20.9112C61.5393 20.1948 61.3582 19.3577 61.3582 18.3999C61.3582 17.442 61.5393 16.6029 61.9015 15.8825C62.2678 15.162 62.7829 14.6026 63.447 14.2042C64.1111 13.8058 64.8959 13.6065 65.8014 13.6065C66.7069 13.6065 67.4917 13.8058 68.1558 14.2042C68.8199 14.6026 69.333 15.162 69.6952 15.8825C70.0615 16.6029 70.2446 17.442 70.2446 18.3999C70.2446 19.3577 70.0615 20.1948 69.6952 20.9112C69.333 21.6276 68.8199 22.185 68.1558 22.5835C67.4917 22.9819 66.7069 23.1811 65.8014 23.1811ZM65.8135 21.4304C66.3045 21.4304 66.715 21.2956 67.045 21.0259C67.375 20.7522 67.6205 20.386 67.7815 19.9272C67.9465 19.4684 68.029 18.9573 68.029 18.3938C68.029 17.8263 67.9465 17.3132 67.7815 16.8544C67.6205 16.3916 67.375 16.0233 67.045 15.7496C66.715 15.476 66.3045 15.3391 65.8135 15.3391C65.3104 15.3391 64.8918 15.476 64.5578 15.7496C64.2278 16.0233 63.9803 16.3916 63.8153 16.8544C63.6543 17.3132 63.5738 17.8263 63.5738 18.3938C63.5738 18.9573 63.6543 19.4684 63.8153 19.9272C63.9803 20.386 64.2278 20.7522 64.5578 21.0259C64.8918 21.2956 65.3104 21.4304 65.8135 21.4304ZM74.2848 17.5668V23H72.0994V13.7273H74.1882V15.3029H74.2969C74.5102 14.7837 74.8503 14.3712 75.3171 14.0653C75.788 13.7595 76.3696 13.6065 77.0618 13.6065C77.7017 13.6065 78.2591 13.7434 78.734 14.017C79.213 14.2907 79.5832 14.6871 79.8448 15.2063C80.1104 15.7255 80.2412 16.3554 80.2372 17.0959V23H78.0518V17.4339C78.0518 16.8142 77.8909 16.3292 77.5689 15.979C77.2509 15.6289 76.8103 15.4538 76.2468 15.4538C75.8645 15.4538 75.5244 15.5384 75.2266 15.7074C74.9328 15.8724 74.7013 16.1119 74.5323 16.4258C74.3673 16.7397 74.2848 17.12 74.2848 17.5668ZM87.0891 13.7273V15.4176H81.7585V13.7273H87.0891ZM83.0746 11.5057H85.2599V20.2109C85.2599 20.5047 85.3042 20.7301 85.3928 20.8871C85.4853 21.04 85.6061 21.1446 85.755 21.201C85.9039 21.2573 86.0689 21.2855 86.25 21.2855C86.3868 21.2855 86.5116 21.2754 86.6243 21.2553C86.741 21.2352 86.8295 21.2171 86.8899 21.201L87.2582 22.9094C87.1415 22.9497 86.9744 22.994 86.7571 23.0423C86.5438 23.0906 86.2822 23.1187 85.9723 23.1268C85.425 23.1429 84.9319 23.0604 84.4933 22.8793C84.0546 22.6941 83.7064 22.4084 83.4489 22.022C83.1953 21.6357 83.0705 21.1527 83.0746 20.5732V11.5057ZM92.9223 23.1811C91.9926 23.1811 91.1897 22.9879 90.5136 22.6016C89.8415 22.2112 89.3243 21.6598 88.9621 20.9474C88.5999 20.2311 88.4188 19.3879 88.4188 18.418C88.4188 17.4641 88.5999 16.627 88.9621 15.9066C89.3283 15.1822 89.8395 14.6187 90.4955 14.2163C91.1515 13.8098 91.9222 13.6065 92.8076 13.6065C93.3791 13.6065 93.9184 13.6991 94.4255 13.8842C94.9366 14.0653 95.3874 14.3471 95.7778 14.7294C96.1722 15.1117 96.4821 15.5987 96.7075 16.1903C96.9329 16.7779 97.0455 17.4782 97.0455 18.2912V18.9613H89.445V17.4883H94.9507C94.9467 17.0697 94.8561 16.6974 94.6791 16.3714C94.502 16.0414 94.2545 15.7818 93.9365 15.5927C93.6226 15.4035 93.2564 15.3089 92.8378 15.3089C92.3911 15.3089 91.9987 15.4176 91.6606 15.6349C91.3225 15.8482 91.0589 16.13 90.8698 16.4801C90.6846 16.8262 90.5901 17.2066 90.586 17.6211V18.907C90.586 19.4463 90.6846 19.9091 90.8818 20.2955C91.079 20.6778 91.3547 20.9716 91.7089 21.1768C92.0631 21.3781 92.4776 21.4787 92.9525 21.4787C93.2704 21.4787 93.5582 21.4344 93.8158 21.3459C94.0734 21.2533 94.2967 21.1185 94.4859 20.9414C94.675 20.7643 94.8179 20.545 94.9145 20.2834L96.955 20.5128C96.8262 21.0521 96.5807 21.523 96.2185 21.9254C95.8603 22.3239 95.4015 22.6338 94.8421 22.8551C94.2826 23.0724 93.6427 23.1811 92.9223 23.1811ZM100.482 13.7273L102.354 17.1502L104.255 13.7273H106.567L103.772 18.3636L106.616 23H104.316L102.354 19.6616L100.41 23H98.0914L100.917 18.3636L98.1639 13.7273H100.482ZM112.888 13.7273V15.4176H107.557V13.7273H112.888ZM108.873 11.5057H111.059V20.2109C111.059 20.5047 111.103 20.7301 111.192 20.8871C111.284 21.04 111.405 21.1446 111.554 21.201C111.703 21.2573 111.868 21.2855 112.049 21.2855C112.186 21.2855 112.31 21.2754 112.423 21.2553C112.54 21.2352 112.628 21.2171 112.689 21.201L113.057 22.9094C112.94 22.9497 112.773 22.994 112.556 23.0423C112.343 23.0906 112.081 23.1187 111.771 23.1268C111.224 23.1429 110.731 23.0604 110.292 22.8793C109.853 22.6941 109.505 22.4084 109.248 22.022C108.994 21.6357 108.869 21.1527 108.873 20.5732V11.5057ZM117.251 10.6364V23H115.011V10.6364H117.251ZM124.283 18.8466H126.311L127.512 20.4041L128.37 21.4183L130.428 24.0625H128.255L126.854 22.2876L126.257 21.4425L124.283 18.8466ZM130.724 16.8182C130.724 18.1503 130.475 19.2913 129.975 20.2411C129.48 21.1869 128.804 21.9113 127.947 22.4144C127.094 22.9175 126.126 23.169 125.043 23.169C123.961 23.169 122.991 22.9175 122.134 22.4144C121.28 21.9073 120.604 21.1809 120.105 20.2351C119.61 19.2853 119.363 18.1463 119.363 16.8182C119.363 15.486 119.61 14.3471 120.105 13.4013C120.604 12.4515 121.28 11.725 122.134 11.2219C122.991 10.7189 123.961 10.4673 125.043 10.4673C126.126 10.4673 127.094 10.7189 127.947 11.2219C128.804 11.725 129.48 12.4515 129.975 13.4013C130.475 14.3471 130.724 15.486 130.724 16.8182ZM128.472 16.8182C128.472 15.8804 128.325 15.0896 128.032 14.4457C127.742 13.7977 127.339 13.3087 126.824 12.9787C126.309 12.6446 125.715 12.4776 125.043 12.4776C124.371 12.4776 123.778 12.6446 123.262 12.9787C122.747 13.3087 122.343 13.7977 122.049 14.4457C121.759 15.0896 121.614 15.8804 121.614 16.8182C121.614 17.7559 121.759 18.5488 122.049 19.1967C122.343 19.8407 122.747 20.3297 123.262 20.6637C123.778 20.9937 124.371 21.1587 125.043 21.1587C125.715 21.1587 126.309 20.9937 126.824 20.6637C127.339 20.3297 127.742 19.8407 128.032 19.1967C128.325 18.5488 128.472 17.7559 128.472 16.8182Z" fill="#080808"/>
<g clip-path="url(#clip0_2012_264)">
<g style="mix-blend-mode:multiply">
<path d="M24.9941 11.2024H18.3505C18.2733 10.5548 18.0894 9.9247 17.8065 9.33824C17.5441 8.80215 17.1803 8.32312 16.7356 7.9282C16.2649 7.52459 15.7207 7.21754 15.1336 7.02422C14.4759 6.80597 13.787 6.69928 13.0947 6.70847C11.8869 6.67664 10.6984 7.01931 9.68938 7.69032C8.69674 8.39279 7.93336 9.3774 7.49626 10.519C6.46039 13.4564 6.46039 16.6647 7.49626 19.6021C7.93176 20.7318 8.69648 21.7016 9.68938 22.3832C10.6918 23.021 11.8589 23.3445 13.0433 23.3132C13.716 23.3199 14.3859 23.2251 15.0308 23.032C15.6035 22.8572 16.1394 22.5771 16.6114 22.2059C17.0694 21.8408 17.4534 21.39 17.7423 20.878C18.0479 20.3259 18.2566 19.7244 18.3591 19.1003L25.0027 19.1393C24.8776 20.3937 24.5232 21.6139 23.9575 22.7379C23.3577 23.9476 22.5499 25.0401 21.5716 25.9645C20.5058 26.9723 19.2542 27.7585 17.8879 28.2785C16.2967 28.8777 14.6085 29.1711 12.9105 29.1436C10.6041 29.1834 8.32685 28.6186 6.30118 27.5043C4.3383 26.3899 2.73851 24.7234 1.69648 22.7076C0.568504 20.6055 0.00594425 18.0464 0.00879988 15.0303C0.0116555 12.0141 0.582781 9.45213 1.72218 7.34429C2.78088 5.33031 4.39132 3.66662 6.36114 2.55191C8.36847 1.44666 10.6244 0.883504 12.9105 0.916958C14.4603 0.902057 16.0028 1.13415 17.481 1.60467C18.826 2.03675 20.0786 2.7205 21.1733 3.62025C22.2386 4.51304 23.113 5.61524 23.7434 6.85986C24.4328 8.21277 24.8574 9.68719 24.9941 11.2024Z" fill="#3ADFD8"/>
</g>
<g style="mix-blend-mode:multiply">
<path d="M33.2697 21.8036C34.4119 19.7016 34.983 17.1396 34.983 14.1177C34.983 11.0957 34.4119 8.5323 33.2697 6.42734C32.2032 4.41004 30.5818 2.74722 28.6007 1.63927C26.5639 0.562353 24.299 -0.000175476 21.9999 -0.000175476C19.7008 -0.000175476 17.4359 0.562353 15.3992 1.63927C13.4211 2.74835 11.8027 4.41109 10.7388 6.42734C9.59652 8.52942 9.02539 11.0929 9.02539 14.1177C9.02539 17.1424 9.59652 19.6929 10.7388 21.769C11.805 23.7844 13.4208 25.449 15.3949 26.5657C17.4178 27.6846 19.6937 28.2539 21.9999 28.218C23.6042 28.2285 25.1982 27.9593 26.7117 27.4222L28.8534 29.987H34.8117L30.7981 24.987C31.7884 24.0691 32.6233 22.9938 33.2697 21.8036ZM18.6417 21.4533C17.6641 20.7586 16.9175 19.7816 16.5 18.6505C15.4977 15.7074 15.4977 12.5106 16.5 9.56748C16.9023 8.42781 17.6553 7.44811 18.6489 6.77177C19.6424 6.09544 20.8242 5.75799 22.0214 5.80883C23.2136 5.77535 24.3878 6.10871 25.3881 6.76471C26.3639 7.46133 27.11 8.43775 27.5299 9.56748C28.5321 12.5106 28.5321 15.7074 27.5299 18.6505C27.318 19.1782 27.0433 19.6779 26.7117 20.1384L25.9021 19.096H20.5521L22.9808 22.3443C22.6569 22.3861 22.3308 22.4078 22.0042 22.4092C20.8135 22.441 19.6411 22.1077 18.6417 21.4533Z" fill="#325EFC"/>
</g>
</g>
<defs>
<clipPath id="clip0_2012_264">
<rect width="35" height="30" fill="white"/>
</clipPath>
</defs>
</svg>
