<svg version="1.1" id="Layer_1" xmlns:x="ns_extend;" xmlns:i="ns_ai;" xmlns:graph="ns_graphs;" xmlns="http://www.w3.org/2000/svg" xmlns:xlink="http://www.w3.org/1999/xlink" x="0px" y="0px" viewBox="0 0 130.1 42" style="enable-background:new 0 0 130.1 42;" xml:space="preserve">
 <style type="text/css">
  .st0{fill-rule:evenodd;clip-rule:evenodd;fill:#000000;}
 </style>
 <metadata>
  <sfw xmlns="ns_sfw;">
   <slices>
   </slices>
   <sliceSourceBounds bottomLeftOrigin="true" height="42" width="130.1" x="-23.1" y="3">
   </sliceSourceBounds>
  </sfw>
 </metadata>
 <g id="顶部导航_x2F_底部导航_x2F_订阅">
  <g id="_x38_35" transform="translate(-16.000000, -106.000000)">
   <g id="组件_x2F_web_x2F_head" transform="translate(0.000000, 98.000000)">
    <g id="编组-5" transform="translate(16.000000, 8.000000)">
     <g id="编组-8" transform="translate(8.000000, 13.000000)">
      <polygon id="Fill-1" class="st0" points="-8,-10.9 -8,0.1 6.8,0.1 6.8,27.5 20,27.5 20,0.1 34.7,0.1 34.7,-10.9 					">
      </polygon>
      <path id="Fill-2" class="st0" d="M60.6,19.5c-3.1,0-5.4-0.9-7.3-2.8c-1.9-1.8-3.3-4.7-3.3-8.5V7.7c0-3.8,1.4-6.7,3.3-8.5
						c2-1.9,4.3-2.8,7.3-2.8c7.2,0,8.7,4.4,9.2,7.3h11.7c-0.3-5.8-3-9.9-6.8-12.7c-3.8-2.7-8.2-4.1-14-4.1c-7.2,0-12.3,1.6-16.5,5.3
						C40-3.9,37.8,2,37.8,7.8v0.3c0,6.4,2,11.3,6.3,15.3c4,3.8,9.9,5.5,16.5,5.5c5.8,0,10.8-1.4,14.3-4.1c3.8-3,6.4-7.1,6.7-12.6
						H69.8C69.5,14.6,68.1,19.5,60.6,19.5">
      </path>
      <polygon id="Fill-5" class="st0" points="101.3,16.9 101.3,-10.9 88.6,-10.9 88.6,27.5 122.1,27.5 122.1,16.9 					">
      </polygon>
     </g>
    </g>
   </g>
  </g>
 </g>
</svg>