<?xml version="1.0" encoding="UTF-8" standalone="no"?>
<svg
   version="1.1"
   id="Layer_1"
   x="0px"
   y="0px"
   viewBox="0 0 500 172"
   style="enable-background:new 0 0 500 172;"
   xml:space="preserve"
   width="500"
   height="172"
   sodipodi:docname="Cineverse logo.svg"
   inkscape:version="1.4 (86a8ad7, 2024-10-11)"
   xmlns:inkscape="http://www.inkscape.org/namespaces/inkscape"
   xmlns:sodipodi="http://sodipodi.sourceforge.net/DTD/sodipodi-0.dtd"
   xmlns="http://www.w3.org/2000/svg"
   xmlns:svg="http://www.w3.org/2000/svg"><defs
   id="defs6" /><sodipodi:namedview
   id="namedview6"
   pagecolor="#ffffff"
   bordercolor="#000000"
   borderopacity="0.25"
   inkscape:showpageshadow="2"
   inkscape:pageopacity="0.0"
   inkscape:pagecheckerboard="0"
   inkscape:deskcolor="#d1d1d1"
   inkscape:zoom="0.888"
   inkscape:cx="182.43243"
   inkscape:cy="82.77027"
   inkscape:window-width="1920"
   inkscape:window-height="1057"
   inkscape:window-x="-8"
   inkscape:window-y="-8"
   inkscape:window-maximized="1"
   inkscape:current-layer="g6" />
<style
   type="text/css"
   id="style1">
	.st0{opacity:0.73;}
	.st1{fill:#FFFFFF;}
</style>
<g
   class="st0"
   id="g6"
   style="fill:#FFFFFF;fill-opacity:1;opacity:1">
	<path
   class="st1"
   d="M31.3,144.1c17.6,0,29.3-6,29.3-24.2v-17.9H36.5v17.7c0,4.5-2.3,5.9-5.2,5.9c-2.9,0-5.2-1.3-5.2-5.9V53.1   c0-4.5,2.3-5.9,5.2-5.9c2.9,0,5.2,1.3,5.2,5.9v17.5h24.1V53c0-18.2-11.7-24.2-29.3-24.2S2,34.8,2,53v67   C2,138.1,13.8,144.1,31.3,144.1z"
   id="path1"
   style="fill:#FFFFFF;fill-opacity:1" />
	<rect
   x="65.6"
   y="29.9"
   class="st1"
   width="24.2"
   height="112.9"
   id="rect1"
   style="fill:#FFFFFF;fill-opacity:1" />
	<polygon
   class="st1"
   points="125.5,29.9 94.8,29.9 94.8,142.8 117.1,142.8 117.1,81.1 116.4,66.1 117.9,66.1 132.2,142.8    162.9,142.8 162.9,29.9 140.6,29.9 140.6,91.6 141.3,106.6 139.8,106.6  "
   id="polygon1"
   style="fill:#FFFFFF;fill-opacity:1" />
	<polygon
   class="st1"
   points="210.4,48.3 210.4,29.9 167.9,29.9 167.9,142.8 210.4,142.8 210.4,124.4 192.1,124.4 192.1,95.2    210,95.2 210,77 192.1,77 192.1,48.3  "
   id="polygon2"
   style="fill:#FFFFFF;fill-opacity:1" />
	<polygon
   class="st1"
   points="279.2,29.9 255.9,29.9 247.1,122.9 244.9,122.9 236.2,29.9 212.8,29.9 225.1,142.8 267,142.8  "
   id="polygon3"
   style="fill:#FFFFFF;fill-opacity:1" />
	<polygon
   class="st1"
   points="325.4,48.3 325.4,29.9 282.9,29.9 282.9,142.8 325.4,142.8 325.4,124.4 307.1,124.4 307.1,95.2    325,95.2 325,77 307.1,77 307.1,48.3  "
   id="polygon4"
   style="fill:#FFFFFF;fill-opacity:1" />
	<path
   class="st1"
   d="M364.8,29.9h-34.3v112.9h24.1v-33h6.2l8.6,33l21.8,0l-10.7-38.2c5.7-4.4,8.7-10.9,8.1-17.7V54.1   C388.7,36.7,384.6,29.9,364.8,29.9z M365,87c0,3.9-1.1,5.6-4.3,5.9l-6,0.1l-0.1-44.8h4.5c4.6,0,5.9,1.5,5.9,6V87z"
   id="path4"
   style="fill:#FFFFFF;fill-opacity:1" />
	<path
   class="st1"
   d="M450,69.2V52.9c0-17.9-11.1-24-28.5-24c-17.3,0-28.6,6.1-28.6,24v15.2c0,27.5,33.8,22.7,33.8,37.8v13.9   c0,4.5-2.2,5.9-5.2,5.9c-3.1,0-5.3-1.3-5.3-5.9v-16.2h-23.3v16.3c0,17.9,11.2,24,28.6,24c17.4,0,28.8-6.1,28.8-24v-15.2   c0-27.5-33.9-22.7-33.9-37.8V53c0-4.5,2.2-5.9,5.2-5.9c3,0,5.2,1.3,5.2,5.9v16.2H450z"
   id="path5"
   style="fill:#FFFFFF;fill-opacity:1" />
	<polygon
   class="st1"
   points="498,48.3 498,29.9 455.5,29.9 455.5,142.8 498,142.8 498,124.4 479.6,124.4 479.6,95.2 497.6,95.2    497.6,77 479.6,77 479.6,48.3  "
   id="polygon5"
   style="fill:#FFFFFF;fill-opacity:1" />
	<rect
   x="2"
   y="148.6"
   class="st1"
   width="496"
   height="11.7"
   id="rect5"
   style="fill:#FFFFFF;fill-opacity:1" />
	<rect
   x="2"
   y="11.6"
   class="st1"
   width="496"
   height="11.8"
   id="rect6"
   style="fill:#FFFFFF;fill-opacity:1" />
</g>
</svg>
