<svg version="1.1" id="Layer_1" xmlns="http://www.w3.org/2000/svg" xmlns:xlink="http://www.w3.org/1999/xlink" x="0px" y="0px" viewBox="0 0 632.97 197.9" style="enable-background:new 0 0 632.97 197.9;" xml:space="preserve">
 <style type="text/css">
  .st0{fill:#FFFFFF;}
	.st1{fill:#FFFFFF;}
 </style>
 <g>
  <g>
   <g>
    <path class="st0" d="M9.29,184.28c1.39-3.06,3.71-4.06,6.94-3.01c4.45,1.66,8.94,2.49,13.48,2.49c5.58,0,10.12-1.31,13.61-3.93
				c3.49-2.62,5.24-6.72,5.24-12.3v-4.97l0.26-3.4h-0.26c-3.84,6.63-9.95,9.95-18.32,9.95c-9.42,0-16.82-3.23-22.19-9.69
				C2.68,152.96,0,144.89,0,135.2c0-9.6,2.62-17.52,7.85-23.76c5.24-6.24,12.65-9.36,22.25-9.36c2.88,0,5.54,0.35,7.98,1.05
				c2.44,0.7,4.36,1.55,5.76,2.55c1.39,1,2.57,2.01,3.53,3.01c0.96,1,1.61,1.85,1.96,2.55l0.52,1.05h0.26
				c-0.09-0.44-0.13-1-0.13-1.7v-2.49c0-1.31,0.46-2.38,1.37-3.21c0.92-0.83,2.25-1.24,3.99-1.24h4.45c3.58,0,5.37,1.83,5.37,5.5
				v57.2c0,10.56-3.43,18.46-10.27,23.69c-6.85,5.24-14.94,7.85-24.28,7.85c-7.51,0-14.01-1.18-19.5-3.53
				c-3.32-1.4-4.28-3.75-2.88-7.07L9.29,184.28z M33.51,155.1c4.45,0,8.14-1.53,11.06-4.58c2.92-3.05,4.39-8.03,4.39-14.92
				c0-12.91-5.41-19.37-16.23-19.37c-5.06,0-8.99,1.66-11.78,4.97c-2.79,3.32-4.19,7.77-4.19,13.35c0,6.2,1.48,11.17,4.45,14.92
				C24.17,153.22,28.27,155.1,33.51,155.1z">
    </path>
    <path class="st0" d="M79.45,146.59v-37.43c0-3.66,1.83-5.5,5.5-5.5h5.63c3.66,0,5.5,1.83,5.5,5.5v34.03
				c0,4.45,0.76,7.83,2.29,10.14c1.53,2.31,4.21,3.47,8.05,3.47c5.76,0,10.32-2.18,13.68-6.54c3.36-4.36,5.04-9.69,5.04-15.97
				v-25.13c0-3.66,1.83-5.5,5.5-5.5h5.63c3.67,0,5.5,1.83,5.5,5.5v55.76c0,3.66-1.83,5.5-5.5,5.5h-5.1c-3.58,0-5.37-1.83-5.37-5.5
				v-3.93l0.26-3.01h-0.26c-1.75,3.75-4.71,7.03-8.9,9.82c-4.19,2.79-8.95,4.19-14.27,4.19C87.17,171.98,79.45,163.52,79.45,146.59z
				">
    </path>
    <path class="st0" d="M156.8,164.91v-55.76c0-3.66,1.79-5.5,5.37-5.5h5.1c3.58,0,5.37,1.83,5.37,5.5v4.06l-0.26,3.01h0.26
				c1.83-3.75,4.73-7.05,8.7-9.88c3.97-2.83,8.35-4.25,13.15-4.25c10.21,0,16.71,4.58,19.5,13.74h0.26c1.92-3.75,4.95-6.98,9.1-9.69
				c4.14-2.7,8.7-4.06,13.68-4.06c14.57,0,21.86,8.46,21.86,25.39v37.43c0,3.66-1.83,5.5-5.5,5.5h-5.63c-3.67,0-5.5-1.83-5.5-5.5
				v-34.29c0-4.36-0.63-7.68-1.9-9.95c-1.27-2.27-3.69-3.4-7.26-3.4c-5.32,0-9.49,2.29-12.5,6.87c-3.01,4.58-4.52,10.01-4.52,16.3
				v24.48c0,3.66-1.79,5.5-5.37,5.5h-5.76c-3.67,0-5.5-1.83-5.5-5.5v-34.29c0-4.27-0.59-7.57-1.77-9.88
				c-1.18-2.31-3.56-3.47-7.13-3.47c-5.5,0-9.75,2.31-12.76,6.94c-3.01,4.63-4.52,10.04-4.52,16.23v24.48c0,3.66-1.79,5.5-5.37,5.5
				h-5.76C158.59,170.41,156.8,168.58,156.8,164.91z">
    </path>
    <path class="st0" d="M278.53,184.28c1.39-3.06,3.71-4.06,6.94-3.01c4.45,1.66,8.94,2.49,13.48,2.49c5.58,0,10.12-1.31,13.61-3.93
				c3.49-2.62,5.24-6.72,5.24-12.3v-4.97l0.26-3.4h-0.26c-3.84,6.63-9.95,9.95-18.32,9.95c-9.42,0-16.82-3.23-22.19-9.69
				c-5.37-6.46-8.05-14.53-8.05-24.21c0-9.6,2.62-17.52,7.85-23.76c5.24-6.24,12.65-9.36,22.25-9.36c2.88,0,5.54,0.35,7.98,1.05
				c2.44,0.7,4.36,1.55,5.76,2.55c1.39,1,2.57,2.01,3.53,3.01c0.96,1,1.61,1.85,1.96,2.55l0.52,1.05h0.26
				c-0.09-0.44-0.13-1-0.13-1.7v-2.49c0-1.31,0.46-2.38,1.37-3.21c0.92-0.83,2.25-1.24,3.99-1.24h4.45c3.58,0,5.37,1.83,5.37,5.5
				v57.2c0,10.56-3.43,18.46-10.27,23.69c-6.85,5.24-14.94,7.85-24.28,7.85c-7.51,0-14.01-1.18-19.5-3.53
				c-3.32-1.4-4.28-3.75-2.88-7.07L278.53,184.28z M302.74,155.1c4.45,0,8.14-1.53,11.06-4.58c2.92-3.05,4.39-8.03,4.39-14.92
				c0-12.91-5.41-19.37-16.23-19.37c-5.06,0-8.99,1.66-11.78,4.97c-2.79,3.32-4.19,7.77-4.19,13.35c0,6.2,1.48,11.17,4.45,14.92
				C293.41,153.22,297.51,155.1,302.74,155.1z">
    </path>
    <path class="st0" d="M348.68,146.59v-37.43c0-3.66,1.83-5.5,5.5-5.5h5.63c3.66,0,5.5,1.83,5.5,5.5v34.03
				c0,4.45,0.76,7.83,2.29,10.14c1.53,2.31,4.21,3.47,8.05,3.47c5.76,0,10.32-2.18,13.68-6.54c3.36-4.36,5.04-9.69,5.04-15.97
				v-25.13c0-3.66,1.83-5.5,5.5-5.5h5.63c3.67,0,5.5,1.83,5.5,5.5v55.76c0,3.66-1.83,5.5-5.5,5.5h-5.1c-3.58,0-5.37-1.83-5.37-5.5
				v-3.93l0.26-3.01h-0.26c-1.75,3.75-4.71,7.03-8.9,9.82c-4.19,2.79-8.95,4.19-14.27,4.19
				C356.41,171.98,348.68,163.52,348.68,146.59z">
    </path>
    <path class="st0" d="M426.04,164.91v-55.76c0-3.66,1.79-5.5,5.37-5.5h5.1c3.58,0,5.37,1.83,5.37,5.5v4.06l-0.26,3.01h0.26
				c1.83-3.75,4.73-7.05,8.7-9.88c3.97-2.83,8.35-4.25,13.15-4.25c10.21,0,16.71,4.58,19.5,13.74h0.26c1.92-3.75,4.95-6.98,9.1-9.69
				c4.14-2.7,8.7-4.06,13.68-4.06c14.57,0,21.86,8.46,21.86,25.39v37.43c0,3.66-1.83,5.5-5.5,5.5h-5.63c-3.67,0-5.5-1.83-5.5-5.5
				v-34.29c0-4.36-0.63-7.68-1.9-9.95c-1.27-2.27-3.69-3.4-7.26-3.4c-5.32,0-9.49,2.29-12.5,6.87c-3.01,4.58-4.52,10.01-4.52,16.3
				v24.48c0,3.66-1.79,5.5-5.37,5.5h-5.76c-3.67,0-5.5-1.83-5.5-5.5v-34.29c0-4.27-0.59-7.57-1.77-9.88
				c-1.18-2.31-3.56-3.47-7.13-3.47c-5.5,0-9.75,2.31-12.76,6.94c-3.01,4.63-4.52,10.04-4.52,16.23v24.48c0,3.66-1.79,5.5-5.37,5.5
				h-5.76C427.83,170.41,426.04,168.58,426.04,164.91z">
    </path>
   </g>
  </g>
  <linearGradient id="SVGID_1_" gradientUnits="userSpaceOnUse" x1="524.8262" y1="53.7355" x2="632.9689" y2="53.7355">
   <stop offset="0" style="stop-color:#FFFFFF">
   </stop>
   <stop offset="0.9984" style="stop-color:#FFFFFF">
   </stop>
  </linearGradient>
  <path class="st1" d="M611.72,0h-33.07c-11.71,0-21.24,9.53-21.24,21.25v38.35c0,0.14-0.01,0.25-0.02,0.34
		c-0.25,0.05-0.6,0.09-0.88,0.08l-15.37-0.03c-9,0-16.32,7.32-16.32,16.32v14.86c0,9,7.32,16.32,16.32,16.32H556
		c9,0,16.32-7.32,16.32-16.32V76.26l-0.01-0.07c0.01-0.17,0.06-0.4,0.11-0.54c0.14-0.04,0.43-0.09,0.9-0.09h38.4
		c11.71,0,21.24-9.53,21.24-21.25V21.25C632.97,9.53,623.44,0,611.72,0z M618.07,21.25v33.07c0,3.5-2.85,6.35-6.35,6.35h-38.4
		c-0.35,0-0.7,0.01-1.04,0.03c0.02-0.31,0.03-0.62,0.03-0.93V21.25c0-3.5,2.85-6.35,6.35-6.35h33.07
		C615.22,14.9,618.07,17.75,618.07,21.25z M557.47,74.89c-0.05,0.65-0.06,1.17-0.05,1.51v14.75c0,0.76-0.67,1.42-1.42,1.42h-14.85
		c-0.76,0-1.42-0.67-1.42-1.42V76.3c0-0.76,0.66-1.42,1.42-1.42l14.48,0C556.08,74.9,556.8,74.92,557.47,74.89z">
  </path>
 </g>
</svg>