<svg width="201" height="38" viewBox="0 0 201 38" fill="none" xmlns="http://www.w3.org/2000/svg">
<g clip-path="url(#clip0_172_9090)">
<mask id="mask0_172_9090" style="mask-type:luminance" maskUnits="userSpaceOnUse" x="0" y="6" width="33" height="26">
<path d="M3.36791 25.8219C2.60833 25.8219 1.87986 26.1237 1.34275 26.6608C0.805648 27.1979 0.503906 27.9264 0.503906 28.6859C0.503906 29.4455 0.805648 30.174 1.34275 30.7111C1.87986 31.2482 2.60833 31.5499 3.36791 31.5499H10.5279C11.2875 31.5499 12.016 31.2482 12.5531 30.7111C13.0902 30.174 13.3919 29.4455 13.3919 28.6859C13.3919 27.9264 13.0902 27.1979 12.5531 26.6608C12.016 26.1237 11.2875 25.8219 10.5279 25.8219H3.36791ZM3.36791 16.0396C2.60833 16.0396 1.87986 16.3413 1.34275 16.8784C0.805648 17.4155 0.503906 18.144 0.503906 18.9036C0.503906 19.6632 0.805648 20.3916 1.34275 20.9287C1.87986 21.4659 2.60833 21.7676 3.36791 21.7676H18.0728C18.8323 21.7676 19.5608 21.4659 20.0979 20.9287C20.635 20.3916 20.9368 19.6632 20.9368 18.9036C20.9368 18.144 20.635 17.4155 20.0979 16.8784C19.5608 16.3413 18.8323 16.0396 18.0728 16.0396H3.36791ZM3.36791 6.26619C2.63717 6.30709 1.94983 6.62618 1.44698 7.15796C0.944132 7.68974 0.663946 8.39384 0.663946 9.12572C0.663946 9.85759 0.944132 10.5617 1.44698 11.0935C1.94983 11.6253 2.63717 11.9443 3.36791 11.9852H29.484C29.873 12.007 30.2623 11.9492 30.6282 11.8153C30.994 11.6815 31.3287 11.4744 31.6118 11.2067C31.8949 10.939 32.1204 10.6164 32.2745 10.2586C32.4286 9.90079 32.508 9.5153 32.508 9.12572C32.508 8.73614 32.4286 8.35065 32.2745 7.99284C32.1204 7.63503 31.8949 7.31242 31.6118 7.04475C31.3287 6.77708 30.994 6.56998 30.6282 6.43611C30.2623 6.30224 29.873 6.24442 29.484 6.26619H3.36791Z" fill="#000000"/>
</mask>
<g mask="url(#mask0_172_9090)">
<path d="M32.3379 6.26562H0.511719V31.5494H32.3379V6.26562Z" fill="#000000"/>
</g>
<path d="M38.7461 6.26562H56.3328V10.8749H44.2324V16.6476H54.686V20.9168H44.2324V31.2272H38.7461V6.26562Z" fill="#000000"/>
<path d="M56.332 13.1474H61.0129V16.5036H61.0755C61.5545 15.3857 62.345 14.4293 63.3528 13.7484C64.3605 13.0676 65.5429 12.6912 66.7588 12.6641C67.1234 12.6657 67.4855 12.7231 67.8328 12.8341V17.4523C67.244 17.3304 66.6441 17.2704 66.0428 17.2733C62.4628 17.2733 61.1919 19.8957 61.1919 23.0819V31.2264H56.332V13.1474Z" fill="#000000"/>
<path d="M73.6959 23.3962C73.8302 26.5377 75.3606 27.9697 78.0993 27.9697C80.0683 27.9697 81.6793 26.7435 81.9747 25.6248H86.3065C84.9282 29.885 81.9747 31.7108 77.9203 31.7108C72.2729 31.7108 68.7734 27.7907 68.7734 22.1969C68.7734 16.8269 72.4787 12.6562 77.9203 12.6562C84.0242 12.6562 86.9688 17.8293 86.6197 23.3962H73.6959ZM81.6972 20.2459C81.2497 17.7309 80.1757 16.4063 77.7861 16.4063C77.263 16.3798 76.7399 16.4591 76.2482 16.6394C75.7564 16.8198 75.3061 17.0975 74.9243 17.456C74.5424 17.8145 74.2368 18.2464 74.0257 18.7257C73.8147 19.2051 73.7025 19.7221 73.6959 20.2459H81.6972Z" fill="#000000"/>
<path d="M106.692 37.5898H101.77V28.9531H101.698C100.552 30.9131 98.1985 31.7186 96.0505 31.7186C92.7569 31.7186 88.4609 29.3021 88.4609 22.3122C88.4609 17.3449 91.0654 12.6641 96.5159 12.6641C98.7355 12.6641 100.848 13.4696 101.958 15.4565H101.975V13.1474H106.656L106.692 37.5898ZM97.6436 27.9686C100.83 27.9686 101.94 25.2388 101.94 22.2674C101.94 19.4303 100.83 16.3962 97.751 16.3962C94.6722 16.3962 93.3834 19.2602 93.3834 22.1958C93.3834 25.1314 94.4216 27.9686 97.6436 27.9686Z" fill="#000000"/>
<path d="M125.32 31.2274H120.639V28.7125H120.541C119.961 29.6401 119.153 30.4036 118.194 30.9301C117.235 31.4566 116.157 31.7284 115.063 31.7197C109.827 31.7197 108.512 28.7483 108.512 24.2733V13.1484H113.434V23.3604C113.434 26.3318 114.329 27.8354 116.585 27.8354C119.27 27.8354 120.397 26.3318 120.397 22.6623V13.1484H125.32V31.2274Z" fill="#000000"/>
<path d="M131.977 23.3951C132.111 26.5366 133.642 27.9775 136.381 27.9775C138.35 27.9775 139.961 26.7514 140.256 25.6326H144.588C143.2 29.8928 140.256 31.7186 136.202 31.7186C130.554 31.7186 127.055 27.7985 127.055 22.2048C127.055 16.8348 130.76 12.6641 136.202 12.6641C142.305 12.6641 145.25 17.8372 144.901 23.4041L131.977 23.3951ZM139.978 20.2447C139.531 17.7298 138.457 16.4052 136.067 16.4052C135.544 16.3774 135.02 16.4558 134.528 16.6357C134.036 16.8156 133.585 17.0933 133.203 17.452C132.821 17.8107 132.515 18.2431 132.304 18.723C132.094 19.203 131.982 19.7206 131.977 20.2447H139.978Z" fill="#000000"/>
<path d="M146.727 13.1477H151.407V15.6716H151.515C152.091 14.7423 152.896 13.9773 153.854 13.4505C154.812 12.9237 155.89 12.6529 156.983 12.6644C162.219 12.6644 163.535 15.6358 163.535 20.1108V31.2267H158.621V21.0148C158.621 18.0434 157.726 16.5398 155.462 16.5398C152.777 16.5398 151.649 18.0434 151.649 21.7129V31.2267H146.727V13.1477Z" fill="#000000"/>
<path d="M177.577 19.512C177.545 19.0679 177.424 18.6348 177.223 18.2377C177.021 17.8406 176.743 17.4873 176.405 17.1985C176.066 16.9096 175.673 16.6908 175.249 16.5549C174.825 16.4189 174.378 16.3684 173.935 16.4063C170.784 16.4063 169.737 19.6193 169.737 22.2775C169.737 24.9356 170.748 27.9697 173.827 27.9697C176.118 27.9697 177.407 26.5019 177.747 24.2913H182.527C181.909 29.0884 178.616 31.7108 173.899 31.7108C168.529 31.7108 164.859 27.8623 164.859 22.4386C164.859 16.818 168.18 12.6562 174.006 12.6562C178.231 12.6562 182.115 14.8937 182.428 19.503L177.577 19.512Z" fill="#000000"/>
<path d="M193.008 33.5002C191.925 36.4 190.234 37.5904 186.833 37.5904C185.825 37.584 184.818 37.5243 183.817 37.4114V33.3391C184.773 33.4534 185.735 33.5131 186.698 33.5181C188.39 33.3391 188.954 31.5581 188.39 30.1261L182.125 13.1211H187.388L191.442 25.4989H191.478L195.398 13.1211H200.49L193.008 33.5002Z" fill="#000000"/>
</g>
<defs>
<linearGradient id="paint0_linear_172_9090" x1="15.6512" y1="7.1864" x2="15.6512" y2="32.4694" gradientUnits="userSpaceOnUse">
<stop stop-color="#53C8EE"/>
<stop offset="1" stop-color="#0995D4"/>
</linearGradient>
<linearGradient id="paint1_linear_172_9090" x1="47.5171" y1="6.26562" x2="47.5171" y2="31.2272" gradientUnits="userSpaceOnUse">
<stop stop-color="#53C8EE"/>
<stop offset="1" stop-color="#0995D4"/>
</linearGradient>
<linearGradient id="paint2_linear_172_9090" x1="62.06" y1="12.6641" x2="62.06" y2="31.2264" gradientUnits="userSpaceOnUse">
<stop stop-color="#53C8EE"/>
<stop offset="1" stop-color="#0995D4"/>
</linearGradient>
<linearGradient id="paint3_linear_172_9090" x1="77.7145" y1="12.6652" x2="77.7145" y2="31.7198" gradientUnits="userSpaceOnUse">
<stop stop-color="#53C8EE"/>
<stop offset="1" stop-color="#0995D4"/>
</linearGradient>
<linearGradient id="paint4_linear_172_9090" x1="97.572" y1="12.6641" x2="97.572" y2="37.5898" gradientUnits="userSpaceOnUse">
<stop stop-color="#53C8EE"/>
<stop offset="1" stop-color="#0995D4"/>
</linearGradient>
<linearGradient id="paint5_linear_172_9090" x1="116.916" y1="13.1484" x2="116.916" y2="31.7197" gradientUnits="userSpaceOnUse">
<stop stop-color="#53C8EE"/>
<stop offset="1" stop-color="#0995D4"/>
</linearGradient>
<linearGradient id="paint6_linear_172_9090" x1="135.996" y1="12.6641" x2="135.996" y2="31.7186" gradientUnits="userSpaceOnUse">
<stop stop-color="#53C8EE"/>
<stop offset="1" stop-color="#0995D4"/>
</linearGradient>
<linearGradient id="paint7_linear_172_9090" x1="155.113" y1="12.6644" x2="155.113" y2="31.2267" gradientUnits="userSpaceOnUse">
<stop stop-color="#53C8EE"/>
<stop offset="1" stop-color="#0995D4"/>
</linearGradient>
<linearGradient id="paint8_linear_172_9090" x1="173.657" y1="12.6652" x2="173.657" y2="31.7198" gradientUnits="userSpaceOnUse">
<stop stop-color="#53C8EE"/>
<stop offset="1" stop-color="#0995D4"/>
</linearGradient>
<linearGradient id="paint9_linear_172_9090" x1="191.29" y1="13.1479" x2="191.29" y2="37.5904" gradientUnits="userSpaceOnUse">
<stop stop-color="#53C8EE"/>
<stop offset="1" stop-color="#0995D4"/>
</linearGradient>
<clipPath id="clip0_172_9090">
<rect width="199.979" height="37.59" fill="#000000" transform="translate(0.511719)"/>
</clipPath>
</defs>
</svg>
