<svg width="97" height="32" viewBox="0 0 97 32" fill="none" xmlns="http://www.w3.org/2000/svg">
<g id="logo_adjust_primary">
<path id="Vector" d="M23.3965 30.9362H31.1437L39.0227 7.86743H30.9763L23.3965 30.9362Z" fill="white"/>
<path id="Vector_2" d="M23.3962 7.86743H15.7324L19.5641 19.5294L23.3962 7.86743Z" fill="#E430E3"/>
<path id="Vector_3" d="M11.9221 19.3385L8.06908 30.9364L0 7.86768H8.15304L11.9221 19.3385Z" fill="#1ACB56"/>
<path id="Vector_4" d="M27.2278 19.4018L23.3961 30.9362L19.5645 19.5293L23.3961 7.86743L27.2278 19.4018Z" fill="#72EAEF"/>
<path id="Vector_5" d="M8.06934 30.9362H15.8166L19.5648 19.5293L15.7326 7.86743L8.06934 30.9362Z" fill="#FF1755"/>
<path id="Vector_6" d="M56.7097 7.86743V20.4133C56.7097 22.498 54.983 24.1879 52.8539 24.1879C50.7247 24.1879 48.9981 22.498 48.9981 20.4133V7.86743H41.4795V20.4133C41.4795 26.5629 46.5721 31.5479 52.8543 31.5479C59.1356 31.5479 64.2282 26.5629 64.2282 20.4133V7.86743H56.7097Z" fill="white"/>
<path id="Vector_7" d="M81.8012 7.23267C79.5394 7.23267 77.5136 8.22237 76.1159 9.78572V7.86757H68.7559V30.9363H76.1159V17.8251C76.1159 16.5349 76.8727 15.3482 78.0623 14.8482C78.8776 14.5055 79.7722 14.3149 80.7137 14.3149C82.1342 14.3149 83.4536 14.7429 84.5546 15.4743L85.0967 7.98909C84.0982 7.50908 82.9833 7.23267 81.8012 7.23267" fill="white"/>
<path id="Vector_8" d="M96.362 0H89.002V30.9366H96.362V0Z" fill="white"/>
</g>
</svg>
