<svg version="1.1" id="Layer_1" xmlns:x="ns_extend;" xmlns:i="ns_ai;" xmlns:graph="ns_graphs;" xmlns="http://www.w3.org/2000/svg" xmlns:xlink="http://www.w3.org/1999/xlink" x="0px" y="0px" viewBox="0 0 495.7 146.4" style="enable-background:new 0 0 495.7 146.4;" xml:space="preserve">
 <style type="text/css">
  .st0{fill:#000000;}
 </style>
 <metadata>
  <sfw xmlns="ns_sfw;">
   <slices>
   </slices>
   <sliceSourceBounds bottomLeftOrigin="true" height="146.9" width="495.8" x="0" y="-0.5">
   </sliceSourceBounds>
  </sfw>
 </metadata>
 <g>
  <path class="st0" d="M128.3,144.1H84.7L50,96.1H38.4V144H0V0h55c31.7,0,57.6,21.6,57.6,48.1c0,16.2-9.9,30.7-25,39.5L128.3,144.1
		 M74.2,48.1c0.1-13.3-10.7-24.1-24-24.2c0,0,0,0,0,0H38.4v48.2h11.9C63.5,72,74.2,61.3,74.2,48.1L74.2,48.1z">
  </path>
  <path class="st0" d="M230.7,87.6c0.1,32.6-26.1,59.1-58.7,59.3s-59.1-26.1-59.3-58.7s26.1-59.1,58.7-59.3c0,0,0.1,0,0.1,0
		c32.5-0.2,59,26.1,59.1,58.6C230.7,87.5,230.7,87.6,230.7,87.6 M171.6,56.8c-10.2,0-18.8,13.8-18.8,30.9s8.6,30.9,18.8,30.9
		c10.4,0,19-13.8,19-30.9S182,56.8,171.6,56.8z">
  </path>
  <path class="st0" d="M320.9,31.3l-44.2,44.3V31.2h-38.4V144h38.4V98.2l46.2,45.8h48.3l-58.7-58.7l48.6-48.6v67
		c0,22.2,13.3,42.7,47,42.7c16,0,30.6-9.1,37.8-17.3l17.3,14.9h8.2V31.3H433v73c-4.3,7.5-10.4,12.3-19.7,12.3
		c-9.5,0-13.8-5.6-13.8-23.5V31.3H320.9z">
  </path>
  <path class="st0" d="M488.1,44.7c-4.2,0-7.6-3.4-7.6-7.6c0-4.2,3.4-7.6,7.6-7.6c4.2,0,7.6,3.4,7.6,7.6S492.3,44.7,488.1,44.7
		L488.1,44.7z M488.1,30.3c-3.8,0-6.8,3.1-6.8,6.8c0,3.8,3.1,6.8,6.8,6.8c3.8,0,6.8-3.1,6.8-6.8C495,33.3,491.9,30.3,488.1,30.3z">
  </path>
  <path class="st0" d="M484.9,33.2h3.4c0.8,0,1.6,0.2,2.2,0.8c0.4,0.4,0.7,1,0.6,1.7l0,0c0,1.1-0.7,2.1-1.8,2.3l2.1,2.9h-1.6
		l-1.9-2.7h-1.7v2.7h-1.3V33.2z M488.2,37.1c1,0,1.6-0.5,1.6-1.3l0,0c0-0.8-0.6-1.3-1.6-1.3h-2v2.6L488.2,37.1z">
  </path>
 </g>
</svg>