<svg version="1.1" id="Layer_1" xmlns="http://www.w3.org/2000/svg" xmlns:xlink="http://www.w3.org/1999/xlink" x="0px" y="0px" viewBox="0 0 278.5 150.6" style="enable-background:new 0 0 278.5 150.6;" xml:space="preserve">
 <style type="text/css">
  .st0{fill:#FFFFFF;}
 </style>
 <g>
  <path class="st0" d="M70,24.6v95.3c0,0.7,0.5,1.2,1.2,1.2h16.1c0.7,0,1.2-0.5,1.2-1.2V24.6c0-0.7-0.5-1.2-1.2-1.2H71.1
		C70.5,23.4,70,23.9,70,24.6z M19.7,70.2c0-3.1,4.4-5.3,11-5.3c7.6,0,14.7,2.7,19.2,6.5c0.8,0.7,2.1,0.5,2.6-0.5l5.4-10.8
		c0.4-0.7,0.2-1.7-0.4-2.1c-6.7-5-15.7-8.7-26.9-8.7c-18.4,0-28.7,10.3-28.7,22c0,27.4,41.6,17.9,41.6,30c0,3.3-3.8,6.1-11.7,6.1
		c-7.9,0-17.3-3.1-22.7-7.5c-0.8-0.7-2-0.4-2.6,0.5l-6.2,10.3c-0.4,0.7-0.3,1.6,0.3,2.1c7.4,6.2,18.6,9.9,30.2,9.9
		c19.4,0,30.3-9.6,30.3-22.5C61.1,72.7,19.7,81.2,19.7,70.2z M101.2,50.4v69.4c0,0.7,0.5,1.2,1.2,1.2h16.1c0.7,0,1.2-0.5,1.2-1.2
		V50.4c0-0.7-0.5-1.2-1.2-1.2h-16.1C101.7,49.3,101.2,49.8,101.2,50.4z M179.5,119.8c0,0.7,0.5,1.2,1.2,1.2h16.1
		c0.7,0,1.2-0.5,1.2-1.2V74.4c0-13.6-10-25.3-25.3-25.3c-11.5,0-19.2,5.8-22,10.9v-9.6c0-0.7-0.5-1.2-1.2-1.2h-16.1
		c-0.7,0-1.2,0.5-1.2,1.2v69.4c0,0.7,0.5,1.2,1.2,1.2h16.1c0.7,0,1.2-0.5,1.2-1.2V81.7c0-8.5,6.2-16.1,15-16.1
		c7.5,0,13.8,3.9,13.8,13.6L179.5,119.8L179.5,119.8z M211,139.3c-0.3,0.5-0.2,1.1,0.2,1.5c8.5,7.2,17.7,9.8,29.4,9.8
		c17.3,0,37.9-7.8,37.9-34.5V52.1c0-0.7-0.5-1.2-1.2-1.2h-16.2c-0.7,0-1.2,0.5-1.2,1.2v7.8c-4.5-7.4-12.4-10.7-20.8-10.7
		c-17.7,0-31.7,15-31.7,37.9c0,19,13.4,35.7,31.7,35.7c8.7,0,15.3-4.1,20.8-11v4.9c0,13.8-10.4,18.9-19.3,18.9
		c-8.3,0-15.4-2.2-20.9-7.6c-0.5-0.5-1.4-0.4-1.8,0.2L211,139.3z M244.1,104.1c-10.4,0-17.7-7-17.7-19.1s7.3-19.5,17.7-19.5
		c9.6,0,15.8,9,15.8,19.5S253.7,104.1,244.1,104.1z M270.7,150.6h1V147h1.3v-0.8h-3.5v0.8h1.3V150.6z M277,148.9l0.5-1.4v3.2h1v-4.4
		h-1.3l-1.1,2.8l-1.1-2.8h-1.3v4.4h1v-3.2l1.3,3.2h0.4L277,148.9">
  </path>
  <g>
   <path class="st0" d="M99.4,21.6c0.1-6.2,5.1-11.1,11.3-11c6.2,0.1,11.1,5.1,11,11.3c-0.1,6-5.1,11.1-11.3,11
			C104.3,32.8,99.4,27.6,99.4,21.6z">
   </path>
   <path class="st0" d="M134.1,33.6c5.6-1.3,9.8-6.1,9.9-11.9v-0.1c0-5.8-4.1-10.7-9.6-12.2c-0.5-0.1-1.2,0.2-0.8,0.9
			c2.3,4,2.8,8.3,2.8,11.3c0,2.9-0.7,7.2-3,11.2C132.9,33.4,133.5,33.7,134.1,33.6z">
   </path>
   <path class="st0" d="M155.1,38.3c7.8-1.8,13.6-8.5,13.8-16.7v-0.1c0-8.1-5.7-15-13.4-17c-0.8-0.2-1.7,0.3-1.2,1.2
			c3.2,5.6,4,11.6,3.9,15.7c-0.1,4.1-1,10.1-4.3,15.6C153.4,38,154.3,38.5,155.1,38.3z">
   </path>
   <path class="st0" d="M177.5,1.6c4,7.1,5,14.7,5,19.9c-0.1,5.2-1.2,12.8-5.4,19.8c-0.7,1.1,0.5,2.1,1.4,1.9
			c9.9-2.3,17.3-11.2,17.4-21.4v-0.1c0.1-10.3-7.2-19-17-21.5C178-0.2,176.9,0.4,177.5,1.6z">
   </path>
  </g>
 </g>
</svg>