<svg version="1.1" id="Layer_1" xmlns="http://www.w3.org/2000/svg" xmlns:xlink="http://www.w3.org/1999/xlink" x="0px" y="0px" viewBox="0 0 170.5 65.2" style="enable-background:new 0 0 170.5 65.2;" xml:space="preserve">
 <style type="text/css">
  .st0{fill:#FFFFFF;}
 </style>
 <g>
  <path d="M43.5,19.2c-3.7-2-11.6-2.9-19.6-2.9C16,16.2,8,17.2,4.3,19.2c-5,2.3-4.5,9.8-4.1,14.8c0.3,4.9,1.3,12,3.6,16
		c1.2,2.4,4.1,4,7.5,4.2c4,0.2,21.2,0.2,25.2,0c3.4-0.2,6.3-1.8,7.5-4.2c2.4-4,3.3-11.1,3.6-16C48,29,48.5,21.5,43.5,19.2">
  </path>
  <path class="st0" d="M40.5,21.6c-3.9-1.4-9.9-2.1-16.6-2c-6.7,0-12.7,0.7-16.6,2c-3.9,1.4-4.1,4.8-4,8.9c0.1,4.4,0.5,8.5,4.3,10.7
		c4,2.3,10.1,3.4,16.4,3.4c6.3,0,12.4-1.1,16.4-3.4c3.8-2.1,4.2-6.3,4.3-10.7C44.6,26.4,44.5,23,40.5,21.6">
  </path>
  <path d="M37.4,1.3c-2-1.5-4.4-1.7-5.3-0.5c-0.5,0.7-0.4,1.8,0.2,2.9c0.4,0.6,0.3,1.4-0.1,2c-2.6,4-4.1,7.9-5.5,13.4h3.6
		c1.2-4.9,2.4-8,4.5-11.3c0.4-0.7,1.2-1,2-0.9c1.1,0.2,2.1,0,2.6-0.7C40.4,5,39.4,2.8,37.4,1.3">
  </path>
  <path d="M10.4,1.3c2-1.5,4.4-1.7,5.3-0.5c0.5,0.7,0.4,1.8-0.2,2.9c-0.4,0.6-0.3,1.4,0.1,2c2.6,4,4.1,7.9,5.5,13.4h-3.6
		c-1.2-4.9-2.4-8-4.5-11.3c-0.4-0.7-1.2-1-2-0.9c-1.1,0.2-2.1,0-2.6-0.7C7.5,5,8.4,2.8,10.4,1.3">
  </path>
  <path d="M22.4,65.2H7.6c0,0,0-2.7,2.7-3.4c2.7-0.7,7.4-0.7,7.4-3.4v-6.7h4v6.7C21.8,61.1,22.4,61.2,22.4,65.2">
  </path>
  <path d="M25.4,65.2h14.8c0,0,0-2.7-2.7-3.4c-2.7-0.7-7.4-0.7-7.4-3.4v-6.7h-4v6.7C26.1,61.1,25.4,61.2,25.4,65.2">
  </path>
  <path d="M20.1,31.5c0,2.4-1.9,4.3-4.3,4.3c-2.4,0-4.3-1.9-4.3-4.3c0-2.4,1.9-4.3,4.3-4.3C18.2,27.1,20.1,29.1,20.1,31.5">
  </path>
  <path d="M36.4,31.5c0,2.4-1.9,4.3-4.3,4.3c-2.4,0-4.3-1.9-4.3-4.3c0-2.4,1.9-4.3,4.3-4.3C34.5,27.1,36.4,29.1,36.4,31.5">
  </path>
  <path d="M90.9,18.1H63.4c-0.4,0-0.8,0.4-0.8,0.8v5.7c0,0.4,0.4,0.8,0.8,0.8h10.1v28.2c0,0.4,0.4,0.8,0.8,0.8H80
		c0.4,0,0.8-0.4,0.8-0.8V25.3h10.1c0.4,0,0.8-0.4,0.8-0.8v-5.7C91.7,18.4,91.3,18.1,90.9,18.1">
  </path>
  <path d="M152.1,48.2c-3.8,0-6.9-3.5-6.9-7.9c0-4.4,3.1-7.9,6.9-7.9c3.8,0,6.9,3.5,6.9,7.9C159,44.7,155.9,48.2,152.1,48.2
		 M152.1,25.7c-7.5,0-13.7,6.6-13.7,14.7c0,8.1,6.1,14.7,13.7,14.7c7.5,0,13.7-6.6,13.7-14.7C165.7,32.2,159.6,25.7,152.1,25.7">
  </path>
  <path d="M139.3,18.1h-6.3c-0.3,0-0.6,0.2-0.8,0.5l-9,24.6l-9-24.6c-0.1-0.3-0.4-0.5-0.8-0.5h-6.3c-0.4,0-0.8,0.4-0.6,0.9l12.8,34.9
		c0.1,0.3,0.4,0.5,0.8,0.5h6.1c0.3,0,0.6-0.2,0.8-0.5L140,18.9C140.1,18.5,139.8,18.1,139.3,18.1">
  </path>
  <path d="M103.1,54.3h-6.5c-0.2,0-0.4-0.2-0.4-0.4V30.6c0-0.2,0.2-0.4,0.4-0.4h6.5c0.2,0,0.4,0.2,0.4,0.4V54
		C103.5,54.2,103.3,54.3,103.1,54.3">
  </path>
  <path d="M104.2,21.8c0,2.4-1.9,4.3-4.3,4.3c-2.4,0-4.3-1.9-4.3-4.3c0-2.4,1.9-4.3,4.3-4.3C102.3,17.4,104.2,19.4,104.2,21.8">
  </path>
  <path d="M166.1,27.8L166.1,27.8c0-1.2,1-2.2,2.2-2.2c1.2,0,2.2,1,2.2,2.2v0c0,1.2-1,2.2-2.2,2.2C167.1,30,166.1,29,166.1,27.8
		 M170.2,27.8L170.2,27.8c0-1.1-0.8-1.9-1.9-1.9c-1.1,0-1.9,0.9-1.9,1.9v0c0,1.1,0.8,1.9,1.9,1.9C169.4,29.7,170.2,28.9,170.2,27.8
		 M167.5,26.7h1c0.5,0,0.8,0.2,0.8,0.7c0,0.4-0.2,0.6-0.5,0.7l0.6,0.8h-0.5l-0.5-0.8h-0.5v0.8h-0.4V26.7z M168.4,27.8
		c0.3,0,0.4-0.2,0.4-0.4c0-0.2-0.2-0.4-0.4-0.4h-0.5v0.7H168.4z">
  </path>
 </g>
</svg>